<?xml version="1.0" encoding="utf-8"?>
<!-- Generator: Adobe Illustrator 22.1.0, SVG Export Plug-In . SVG Version: 6.00 Build 0)  -->
<svg version="1.1" id="layer_1" xmlns="http://www.w3.org/2000/svg" xmlns:xlink="http://www.w3.org/1999/xlink" x="0px" y="0px"
	 viewBox="0 0 1400 1400" style="enable-background:new 0 0 1400 1400;" xml:space="preserve">
<style type="text/css">
	.st0{fill:#FFF3FB;}
	.st1{fill:#FFD9F0;}
	.st2{fill:#FFB3E0;}
	.st3{fill:#FF8AB7;}
	.st4{fill:#FFCAE7;}
	.st5{fill:#FCA2C7;}
	.st6{fill:#3F3530;}
	.st7{fill:#534741;}
	.st8{fill:#BF1925;}
	.st9{fill:#F2C0A2;}
	.st10{fill:#FFD5C0;}
	.st11{fill:#E2A181;}
	.st12{fill:#352715;}
	.st13{fill:#563B20;}
	.st14{fill:#C98669;}
	.st15{fill:#F4E6D7;}
	.st16{fill:#F4F1EA;}
	.st17{fill:#D6D3CC;}
	.st18{fill:#DDCEC0;}
</style>
<g>
	<rect class="st0" width="1400" height="1400"/>
	<g>
		<g>
			<path class="st1" d="M700,243.1c-334-293.2-635.6,41.6-436.8,328c172.2,248.1,218.4,312.7,358.6,432.5
				c21.6,19.5,48.2,25.9,78.2,20.8c30,5,56.5-1.3,78.2-20.8c140.2-119.8,186.4-184.5,358.6-432.5C1335.6,284.7,1034-50.1,700,243.1z
				"/>
			<path class="st1" d="M684.3,438.9c-221.7-71.9-393.6-80.4-484.6-58.9c-0.2,53.8,14.9,111.6,48.8,168.2
				c128-8.3,462.4,131.9,673.7,115c82.1-6.6,139.3-22.8,179-41c11.2-16.2,23.1-33.2,35.6-51.2c17.5-25.2,31.2-50.9,41.2-76.4
				l-18.7-97.4C1159.3,397.3,938.4,521.3,684.3,438.9z"/>
			<path class="st2" d="M245.8,314.9c-70,31.8-36.5,139.4,12.7,92.6c0,0,47.9,0.6,67.1-30.6C361.4,319.1,301.9,289.4,245.8,314.9z"
				/>
			<path class="st3" d="M485.4,326.8c-11,5.9-62.9,23.8-62.9,23.8l11.9-45l-66.3-16.1l-6.8,29.7c0,0-12.7-15.3-28-28
				c-15.3-12.7,20.4,48.4,20.4,48.4l-22.9,89.2c0,0-26.3-28-39.1-34c-12.7-5.9,33.1,53.5,33.1,53.5s-5.1,15.3-9.3,31.4
				c-3,11.4-28.8,68.4-44.7,102.3c6.7,9.7,13.2,19,19.6,28.1c39.9,3.3,103.3,6.9,103.3-2.9c0-14.4,0.8-114.7,0.8-130
				s10.2-87.5,20.4-95.2C425.1,374.3,496.5,320.8,485.4,326.8z"/>
			<path class="st4" d="M206.4,325c70,13.9,114.4-30.1,189.8-11.8c87.5,21.2,206.5,91.8,244.7-17c8.1-23.1,16.7-50,22.9-77.4
				C443.6,53.3,245.1,155.2,206.4,325z"/>
			<path class="st1" d="M700.4,372.6C594.2,347.1,567,486.5,643.5,538.3c47.8,32.4,96,31.9,139.5,31.8c6.1,7.9,20.3,24.7,33.5,28.1
				c17.6,4.6,29.7,6.1,34.4,6.6c-2,9.3-4.9,19.8-8.8,29.7c-12.4,31.2-24.3,44-24.3,44s60.3,38.2,58.6,17s-2.5-52.7,0-60.3
				c1.5-4.5,3.9-11,7.5-23c6.8-0.7,18.6-2.3,26.1-4.6c11-3.4,31.7-23.6,31.7-23.6c20.6,4.8,47.5,8.9,90.3,1.9
				c82.4-13.6,91.8-130,27.2-194.6S806.6,398.1,700.4,372.6z M853,593.7v-1.4c0,0-7.6,0.8-23.8-4.2c-11.2-3.5-16.5-12.2-18.8-17.6
				c15.9,0.6,30.9,2.3,44.8,7C854.9,579.9,854.3,585.8,853,593.7z M903.9,596.6c-4.8,1.8-11.5,3.1-16.8,3.9c1.8-6.5,3.8-14,6.1-23
				c9.1-1.7,17.6-0.6,26.9,1.4C916.8,584.6,910.4,594.2,903.9,596.6z"/>
			<path class="st2" d="M700,243.1c-51.4-45.1-102-75.3-150.2-93.2c-15.1,79.3,4.1,193,183.3,272.5c195.4,86.7,250.7,20.4,358.6,0
				c46.7-8.8,80.7-8.7,106.6-8C1225,183.8,973.3,3.1,700,243.1z"/>
			<path class="st5" d="M964.7,635.2c-64.6,21.2-119.8,58.6-140.7,34.8s-31.8-62.9-82.8-65.4c-51-2.5-75.6,31.4-76.9,23.6
				c-59.1-140.9-127.9-102.6-201.9-6.6l278.7,219.2c0,0,149.5-51.6,278.3-102.9c20.1-27.8,42.1-58.9,66.9-94.5
				C1061.1,617.6,1021.9,616.4,964.7,635.2z"/>
			<path class="st3" d="M1130.4,455.9c-1.7,12.7-71.4-56.9-66.3-42.5s56.1,85,56.1,85l-27.2,90.1c0,0-28.1,54.3-42.8,106.5
				c25.3-35.7,53.6-76.5,86.6-124c41.6-59.9,61.2-121.8,63.4-179.7h-59.5C1140.6,391.3,1132.1,443.2,1130.4,455.9z"/>
			<path class="st4" d="M284.8,602.1c53.4,76.8,94.1,134.7,130,182.4c152-16.8,556.2-62.2,549.9-67.7
				C736.4,606,409.4,599.9,284.8,602.1z"/>
			<path class="st2" d="M379.8,736.9c87.6,121.2,139.8,179.3,242.1,266.6c21.6,19.5,48.2,25.9,78.2,20.8c30,5,56.5-1.3,78.2-20.8
				c113.2-96.7,165.1-157.5,271.5-307.8C779.7,691.3,514.8,719.6,379.8,736.9z"/>
			<path class="st5" d="M621.8,1003.6c21.6,19.5,48.2,25.9,78.2,20.8c30,5,56.5-1.3,78.2-20.8c97.6-83.4,149.6-140.1,230.3-250.5
				c-222.1,27.3-405.5,102.1-498.3,146C542.7,933.4,577.6,965.8,621.8,1003.6z"/>
			<path class="st3" d="M621.8,1003.6c21.6,19.5,48.2,25.9,78.2,20.8c30,5,56.5-1.3,78.2-20.8c13.2-11.3,25.5-22,37.2-32.5
				C707.5,880.7,534.3,852.2,461.5,844C509.5,901.9,555,946.5,621.8,1003.6z"/>
			<path class="st5" d="M841.1,288.9c-180,83.6-253.5,16.1-294.9-82.7c4.7,71.1,47,154.1,186.9,216.1c195.4,86.7,250.7,20.4,358.6,0
				c46.7-8.8,80.7-8.7,106.6-8c7.9-68-8.5-131.6-42.5-181.5C1067.7,214.6,972.1,228,841.1,288.9z"/>
		</g>
		<g>
			<ellipse class="st3" cx="652.7" cy="1180.6" rx="342" ry="46.3"/>
			<path class="st6" d="M886.4,1155.9c-3.9,1-17.5,1-22.3,0c-4.9-1-15.5,8.7-27.2,12.6c-11.6,3.9-24.3,4.9-27.2,5.8
				c-2.9,1-2.9,3.9,0,5.8h81.5C894.2,1161.8,886.4,1155.9,886.4,1155.9z"/>
			<path class="st6" d="M853.7,749.4l-12.7,158.1l13.6,249c0,0,22.1,3.4,37.4-0.8c0.8-6.8,10.2-227.7,0.8-288.9
				c22.1-66.3,17-119.8,17-119.8L853.7,749.4z"/>
			<path class="st7" d="M881.7,753.6c-5.4-50.6-127.1,14.4-127.1,14.4l-31.8,160.6l89.2,240.5c0,0,28.9,4.2,59.5-0.8
				c0,0,7.6-179.3,6.8-213.3c-0.8-34-5.9-71.4-5.9-71.4S888.5,817.4,881.7,753.6z"/>
			<path class="st8" d="M795,437.5c-5.1-5.1-11.9,3.4-7.6,12.7c-0.8,2.5,1.3,16.1,10.2,6.8C817.1,436.7,800.1,431.6,795,437.5z"/>
			<path class="st9" d="M642.1,602.4c16.1,3.4,18.7-8.5,18.7-8.5l-25.5-52.7C635.3,541.2,630.2,569.2,642.1,602.4z"/>
			<path class="st10" d="M733.9,489.4c-8.5-3.4-23.8-2.5-23.8-2.5l-5.9,15.3c0,0,10.2,27.2,29.7,42.5c19.5,15.3,28.9,1.7,28.9,1.7
				s-5.9-17-11-30.6C746.6,502.1,742.4,492.8,733.9,489.4z"/>
			<path class="st10" d="M711.3,633.4c-9.3-26.3-27.6-100.7-33.6-116.8c-5.9-16.1-4.7-59.1-4.7-59.1l-5.1-0.3
				c2.1,24.5-0.8,25-5.1,28.4c-4.2,3.4-11,7.6-18.7,14.4c-7.6,6.8-11.9,17-11,39.1c0.8,22.1,9.3,50.1,28,80.7
				c18.7,30.6,37.4,52.7,45.9,56.9c8.5,4.2,66.7-29.8,89.2-39.9c51-22.9,11-6.4,28.5-15.7c11.7-6.3,10.5-16.1,12.9-20.9
				c-12.5,4.9-29.8,10.5-55.8,18C743.6,629.1,720.7,630,711.3,633.4z"/>
			<path class="st10" d="M838.4,599c-0.3,0.3-0.5,0.7-0.7,1.1c5.9-2.3,10.6-4.5,14.7-6.7C865.1,586.6,841.8,594.7,838.4,599z"/>
			<path class="st9" d="M760.2,539.5c-3.8-9.8-15.7-38.7-24.2-45.5s-15.3-1.7-16.1,4.2s-0.8,8.5-2.5,6.8s-5.9-10.2-5.1-17
				c0.8-6.8,3.8-16.6,3.8-16.6s10.2,3.4,18.7-2.5c5.6-3.9,7.6-10.2,11-22.9c4.2,0,8.5-0.8,8.5-4.2c0-4.2-3.4-14.4-4.2-16.1
				c-0.8-1.7,2.5-0.8,3.8-17.4c0.6-7.7,0.8-14.4,0.8-14.4l-1.7-8.5l-29.7-14.4l-49.3,22.1v41.6l-5.1,33.1c0,0,0,11-2.5,20.4
				c-2.5,9.3-17,16.1-13.6,15.3c3.4-0.8,14.9,4.8,21.2,14.4c9.8,14.9,27.2,85,27.2,85s31-10.6,40.4-16.6
				c9.3-5.9,11.9-21.2,11.9-21.2s12.7-10.5,11.1-14.7C763.1,546.8,761.4,542.6,760.2,539.5z"/>
			<path class="st11" d="M731.3,378c-6.8-1.7-4.2-5.1-11,3.4c-6.8,8.5-20.4,42.5-20.4,42.5l-0.3,13.9c0,0,2.9-8.8,4.6-10.5
				s10.2-2.5,15.3-13.6c5.1-11,6.8-19.5,9.3-22.9c5.9,9.3,21.6,4.2,25.7,10.2c0.7-7.6,0-11,0-11S738.1,379.7,731.3,378z"/>
			<path class="st12" d="M753,378.5c-13.6-5.1-8.5-23.8-45-32.3c-36.5-8.5-56.1,25.5-56.1,25.5s-7.6-1.7-14.4,12.7
				c-6.8-4.2-9.3,0-9.3,0s3.4-0.8,5.1,4.2c-27.2-0.8-28,43.3,0,50.1c0.8,17.8,20.4,24.6,34,11.9c0,0,1.7,11.9,1.7,16.1
				s6.8-17,13.6-28.9c4.2,0.8,9.3,0.8,6.8,0c-20.4-7.6-5.1-32.3,4.2-18.7c3.7,5.3,1.6,15.2,1.3,18.3c-1.7,15.3-9,8.9-7.6,10.2
				c4.2,4.2,8.9,1.3,10.6-3.8c1.7-5.1,5.1-18.7,5.9-19.5c20.4-11,14.4-27.2,25.5-41.6c12.7,14.4,18.7,2.5,25.5,11
				C764,395.5,766.6,383.6,753,378.5z"/>
			<path class="st13" d="M705,393.3c-7.6,11.9-13.6,14.4-22.9,20.4c-9.3,5.9-10.2,17-9.3,15.3c5.1-13.6,11-8.5,26.3-21.2
				s16.1-26.3,23.8-29.7C722.8,378,712.6,381.4,705,393.3z"/>
			<path class="st9" d="M781.9,331.7h-50.1l-10.2,22.9c0,0,9.3,15.3,14.4,23.8c5.1,8.5,9.3,9.3,10.2,10.2c0.8,0.8,5.9,16.1,7.6,18.7
				c1.7,2.5,9.3-2.5,9.3-2.5s5.9,5.9,17,14.4s26.3,2.5,26.3,2.5l20.4-22.1l26.3-27.2c0,0-17-20.4-20.4-24.6
				C829.5,343.6,781.9,331.7,781.9,331.7z"/>
			<path class="st11" d="M784.8,351.7c7.6,5.9,8.5,21.2,2.5,26.3c-1.7,0,7.6,4.1,9.3-11C799.3,344.9,780.6,348.4,784.8,351.7z"/>
			<path class="st11" d="M798.4,334.7L784,348.3l7.6,12.7c0,0,2.5-2.5,8.5,1.7c5.9,4.2,7.6,4.2,9.3,5.1c1.7,0.8,5.9-2.5,17-2.5
				s12.1-10.5,12.1-10.5l-6.1-9.1L798.4,334.7z"/>
			<path class="st13" d="M815.9,300.3c-14.4-26.3-34-16.1-34-16.1s-10.2-13.6-33.1,4.2c-22.9,17.8-27.2,28-33.1,45.9
				c-5.9,17.8-11,15.3-11,15.3s7.6,4.2,12.7,2.5c-1.7,2.5-4.2,4.2-7.2,4.7c12.3,6.4,17.4-0.4,21.2-15.3c7.2-2.1,4.7,8.1,6.4,11.5
				c1.7,3.4,4.2,7.6,15.3,12.7c11,5.1,11,6.8,11.9,11.9c0.8,5.1,7.6-11,5.1-15.3c-5.9-10.2,5.1-17,15.3-10.2c0,0,3.4-5.1,12.7-0.8
				c9.3,4.2,8.5,5.9,12.7,5.9s13.6,2.5,19.5,0c5.9-2.5,4.2-5.9,4.2-11.9C834.6,339.4,830.3,326.6,815.9,300.3z"/>
			<g>
				<path class="st11" d="M820.6,390.3c-2.4,1.2-13.7,13.2-15.4,13.2s-3.6-7-5.1-11c-2.5-6.8,3.4,14.4-3.4,22.9
					c-5.5,6.8-15.7,4.2-22.8-1.1c1.8,1.5,3.9,3.2,6.2,4.9c11,8.5,26.3,2.5,26.3,2.5l7-7.6C819.2,402.8,823.7,388.7,820.6,390.3z"/>
				<path class="st11" d="M773,413.5c-0.4-0.4-0.8-0.7-1-0.8C772.3,412.9,772.6,413.2,773,413.5z"/>
			</g>
			<path class="st14" d="M776.6,359c0.4-1.7,1.4-3.3,3.2-4.6c0-1.3-5-1-6.6,2.6c-2,4.6,6.7,13.6,5.2,10.6c-0.9-1.9-1.6-3.7-1.9-5.4
				c1.8-0.3,6.5-0.5,6.5,4.8C783.7,368.9,786.2,359.3,776.6,359z"/>
			<path class="st15" d="M859.6,367c-1.7,0.8-9.3,2.5-23.8,11c-14.4,8.5-29.7,28-30.6,32.3s1.7,28,1.7,28s58.6-53.5,57.8-56.9
				C863.9,378,861.3,366.1,859.6,367z"/>
			<path class="st6" d="M795.7,457.2C780.2,476,765.3,542,765.3,542l-14.4,39.1l42.5,19.5c0,0,12.7,2.5,26.3-15.3
				c13.6-17.8,55.2-126.6,55.2-126.6s-0.8-40.8-8.5-80.7C831.6,385.7,812.2,424.7,795.7,457.2z"/>
			<path class="st6" d="M898.7,416.3c-3.4-3.4-23.8-23.8-23.8-23.8l-8.5-14.4c0,0-8.5,3.4-16.1,8.5c-7.6,5.1-20.4,23.8-17.8,22.9
				c2.5-0.8,22.1-11.9,26.3-13.6s-11.9,9.3-15.3,11.9c-3.4,2.5-48.4,42.5-49.3,53.5c-0.8,11-0.2,73.1-0.2,73.1l22.3,60.3l-29.7,4.2
				l-40.8-11.9l-16.5,64.9c0,0,15.6,101.7,28.4,126.3c86.7,19.5,154.7-22.9,154.7-22.9s1.7-15.3,0.8-47.6
				c-0.8-32.3-5.9-66.3-5.1-95.2c0.8-28.9,13.6-88.4,16.1-115.6c2.5-27.2,5.1-34.8,0-46.7C919.1,438.4,902.1,419.7,898.7,416.3z"/>
			<path class="st16" d="M807.4,981.8c-0.8-11.9-16.1-43.3-30.6-106.2c-14.4-62.9-22.9-203.9-22.9-221.8c0-17.8-5.9-1.7-28-1.7
				S654,600.7,654,600.7s-11.9,0.8-14.4,0c-2.5-0.8,0,5.9,5.1,8.5c10.2,28.9,16.1,36.5,16.1,36.5s0.8,15.3,1.7,20.4
				c0.8,5.1,3.4,12.7,3.4,12.7s-12.7,80.7-29.7,148.7s-23.8,80.7-28.9,89.2c-5.1,8.5-65.4,87.5-68.8,90.9
				c-10.6-1.3-17.4,7.2-27.6,2.1c-10.2-5.1-15.3-6.8-26.3,8.5s-17,25.5-26.3,19.5c-9.3-5.9-13.6-4.2-28,14.4
				c-14.4,18.7-24.6,21.2-45,21.2c-20.4,0-19.5,5.9-46.7,11.9c-27.2,5.9-47.6,10.2-42.5,13.6c5.1,3.4,14.4,1.7,8.5,11.9
				c-5.9,10.2-4.2,25.5,26.3,43.3c-15.3,2.5-17.8,5.9,11.9,13.6s21.2,8.5,29.7,17.8s17-4.2,17-4.2s12.7,0.8,22.9-1.7
				c14.4,15.3,23.8-2.5,41.6,4.2c17.8,6.8,39.9,23.8,66.3,5.1c38.2,26.3,46.7,18.7,53.5,24.6c6.8,5.9,14.4-11,33.1-17
				c18.7-5.9,29.7,17.8,73.9,3.4c44.2-14.4,41.6-28,72.2-21.2c30.6,6.8,34.8-1.7,44.2-6.8c9.3-5.1,15.3,0,22.1,1.7
				c6.8,1.7,9.3-9.3,13.6-31.4s-7.6-31.4-17-73.1C810.8,1052.3,813.3,1019.2,807.4,981.8z"/>
			<path class="st11" d="M757.6,542c-8.6,24.1-16.2-26-17-22.1c-4.2,21.2-25.9,9-18.7,13.6c11.9,7.6,12.7,10.2,16.1,13.6
				c0,0,8.5,13.6,17,14.4C763.6,562.4,760.6,533.9,757.6,542z"/>
			<path class="st12" d="M735,425.9c0.6,0.1,5.2,0.5,6.3,2.1C740.7,421.4,733.7,425.8,735,425.9z"/>
			<path class="st12" d="M745.9,415.1c-7.5-1.4-16.7,2.6-11.4,3.5c1.4,0.2,11.4,3.2,12.9,3C748.8,421.4,751.1,416.1,745.9,415.1z"/>
			<path class="st14" d="M689.2,419.2c-3.3-1.3-6.8,1.7-5.9,2.5c2.1-0.3,3.7,0,5,0.9c-6,6.3,1.7,10.9,0.9,9.3
				c-3.4-3.4-0.2-6.3,1.1-7.3c0.9,1.3,1.6,2.9,2.3,4.7C693.6,432.4,693.5,420.9,689.2,419.2z"/>
			<path class="st11" d="M697.3,474.9c6.8,5.9,15.8,7.4,15.8,7.4l2.9-10.8c0,0-17-4.2-28.9-16.1C685.4,453.7,690.5,469,697.3,474.9z
				"/>
			<path class="st13" d="M650.6,405.2c0,0,3.4,3.4,1.7,13.6c-1.3,7.7-5.1,11-8.5,11c-0.8,1.7,5.9,1.7,8.5-2.5
				c-1.7,8.5-11,10.2-11,10.2s12.2,3.3,17-11.9C663.3,409.5,650.6,405.2,650.6,405.2z"/>
			<path class="st13" d="M637.8,395c5.9,0.8,7.6,5.9,7.6,5.9S647.2,392.5,637.8,395z"/>
			<path class="st13" d="M619.1,400.1c0,8.5,9.3,6.8,11,1.7C635.3,387.4,619.1,391.6,619.1,400.1z"/>
			<path class="st16" d="M765.3,542.9c-1.7-3.4-5.1-8.5-5.1-8.5s-6.8,5.9-7.6,21.2c-11-14.4-44.8-14.9-45.9-12.7
				c-4.2,8.5-13.6,18.7-13.6,18.7c0.8,5.1,14.4,81.6,14.4,81.6s47.1,31.6,46.7,21.2C753.4,640.6,767,546.3,765.3,542.9z"/>
			<polygon class="st17" points="704.1,601.8 701.6,612.6 746.6,629.6 764.4,624.5 762.7,611.7 			"/>
			<path class="st17" d="M725.8,652.1c-2.9,0-6.3-0.9-10-2.5l-13.4,2.9l-1.1-11c-22.4-15-47.3-40.8-47.3-40.8s-1.3,0.1-3.2,0.2
				c2.7,5.1,45.1,84.2,53.4,91.6c6.4,5.7,36-9.9,50.5-18.2c-0.5-10-0.8-17.2-0.8-20.5C753.8,635.9,747.9,652.1,725.8,652.1z"/>
			<path class="st9" d="M852.4,593.4c-12.7,6.8-32.3,13.6-70.5,24.6s-61.2,11.9-70.5,15.3c-4.3-12-10.1-33.7-17.4-58.2
				s-11-51.8-39.1-59.5c-14.2-3.9-17.8,22.9-14.4,44.2c3.4,21.1,16.6,52.6,16.8,53.1c1.3,2.2,2.6,4.5,4,6.8
				c18.7,30.6,37.4,52.7,45.9,56.9c8.5,4.2,66.7-29.8,89.2-39.9c51-22.9,26.3-7.3,43.8-16.6c12.7-6.8-7.6-8.5-4.2-12.7
				C839.2,603.2,865.1,586.6,852.4,593.4z"/>
			<path class="st11" d="M682.9,545.4c-9.3-10.2-12.7-11.9-11.9-8.5c0.8,3.4,2.5,8.5,3.4,11c0.8,2.5,3.4,4.2-5.1,1.7
				s-28-11-25.5-7.6c2.5,3.4,13.6,11,10.2,10.2c-3.4-0.8-21.2-9.3-19.5-5.9c1.7,3.4,20.4,18.7,13.6,16.1c-6.8-2.5-16.1-5.9-12.7-2.5
				c3.4,3.4,22.9,16.1,16.1,13.6s-17.8-5.9-16.1-3.4c1.7,2.5,28,18.7,34.8,19.5c6.8,0.8,22.1,0.8,22.1,0.8s5.9-14.4,10.2-21.2
				C694.8,563.3,692.2,555.6,682.9,545.4z"/>
			<path class="st9" d="M865.7,584c-2.8,0.7,6.2-5.5,8.3-8.3s-13.8,4.1-20.7,6.2c-6.9,2.1-4.8,0.7-4.1-1.4c0.7-2.1,2.1-6.2,2.8-9
				s-2.1-1.4-9.7,6.9c-7.6,8.3-9.7,14.5-15.9,19.3c3.5,5.5,1.8,20.7,1.8,20.7s10.2,0,24.4-4.1c5.4-1.5,26.9-13.8,28.3-15.9
				s-7.6,0.7-13.1,2.8c-5.5,2.1,10.4-8.3,13.1-11.1c2.8-2.8-4.8,0-10.4,2.1c-5.5,2.1,9.7-10.4,11.1-13.1
				C883,576.4,868.5,583.3,865.7,584z"/>
			<path class="st7" d="M833.3,443.5c-24.6,5.9-37.4,39.1-38.2,49.3c-0.8,10.2-1.7,85-0.8,86.7c0.8,1.7,4.2,12.7,2.5,10.2
				s-3.4-5.9-5.9-6.8C788.2,582,716,565,714.3,565c-1.7,0-5.1,2.5-5.1,2.5s-5.1-2.5-5.9-1.7c-6.8,7.6-13.6,28-13.6,28l6.8,3.4
				c0,0,0.8,2.5,1.7,6.8c2.5,1.7,114.7,41.6,127.5,35.7c12.7-5.9,25.5-23.8,33.1-43.3s19.5-72.2,11-107.1S837.5,444.3,833.3,443.5z"
				/>
			<path class="st11" d="M685.4,508c-2.5,4.2-3.4,8.5-2.5,7.6c0.8-0.8,6.3-5.7,10.2-7.6C696.5,506.3,688,503.8,685.4,508z"/>
			<path class="st14" d="M739.8,450.3c-2.5-0.6-7.6-2.5-10.2-4.2c-2.5-1.7,0.5,5.2,3.4,7.6C739,458.8,743.2,451.1,739.8,450.3z"/>
			<g>
				<polygon class="st18" points="425.1,1186.2 425.1,1186.2 425.1,1186.2 				"/>
				<path class="st18" d="M425.1,1186.2c2.5,0,4.9-0.6,7.4-1.3C430.2,1185.3,427.8,1185.7,425.1,1186.2z"/>
				<path class="st17" d="M807.4,981.8c-0.1-1.8-0.6-4.1-1.3-6.9c3.3,27.6-3.3,88.9-1.6,99.1c1.7,10.2,18.7,47.6,14.4,42.5
					s-22.9-27.2-24.6-35.7c-2.4-12.1-5.1-68.8-15.3-97.7c-10.2-28.9-42.5-109.6-40.8-99.4c1.7,10.2,8.5,107.1,5.9,124.1
					c-2.5,17-17.8,111.3-17.8,98.6s-1.7-90.9-3.4-111.3c-2.5-29.6-17.8-104.5-18.7-120.7c-0.8-16.1-18.7,62-27.2,81.6
					s-100.3,160.6-96.9,153.8c5.4-10.9,71.4-147.9,78.2-173.4s21.2-130.9,22.9-160.6c0.9-15.3-35.7,122.4-57.8,150.4
					c-23.8,30.3-87.5,108.8-117.3,130c-29.7,21.2-45.9,29.7-39.9,23.8c18.7-16.1,34.8-34.8,39.1-39.9c4.2-5.1-5.1-0.8-20.4,11
					s-50.1,16.1-70.5,22.9c-28.9,9.6-36.2,0.1-49.5,3c-2.5,1-5.1,2.1-8.4,3.3c0,0,0,0,0,0l0,0c-4.4,1.6-10.1,3.4-18.2,5.2
					c-27.2,5.9-47.6,10.2-42.5,13.6c5.1,3.4,14.4,1.7,8.5,11.9c-3.8,6.5-4.5,15.1,3.5,25.1c13.2,11.9,41.2,3.4,64.1,0
					c22.9-3.4,54.4-14.4,47.6-9.3c-6.8,5.1-19.5,13.6-45.9,22.9c-8.2,2.9,37.2,0.5,58.6-0.8c52.7-3.4,97.7-13.6,102-15.3
					c4.2-1.7-5.1,30.6-48.4,44.2c-21.3,6.7-28.5,2-41.2,4.8c2.9-0.1,5.9,0.3,9.3,1.6c17.8,6.8,39.9,23.8,66.3,5.1
					c38.2,26.3,46.7,18.7,53.5,24.6c6.8,5.9,14.4-11,33.1-17c18.7-5.9,29.7,17.8,73.9,3.4c44.2-14.4,41.6-28,72.2-21.2
					c30.6,6.8,34.8-1.7,44.2-6.8c9.3-5.1,15.3,0,22.1,1.7c6.8,1.7,9.3-9.3,13.6-31.4s-7.6-31.4-17-73.1
					C810.8,1052.3,813.3,1019.2,807.4,981.8z"/>
			</g>
			<path class="st12" d="M784,291.4c0,0,2.5,3.4,0,6.8c0,0-0.8-5.1-5.9-3.4c-4.2-10.2-17.8-8.5-27.2,0
				c-15.6,14.2-17.8,30.6-19.5,46.7c7.2-2.1,4.7,8.1,6.4,11.5c1.7,3.4,4.2,7.6,15.3,12.7c11,5.1,11,6.8,11.9,11.9
				c0.8,5.1,7.6-11,5.1-15.3c-5.9-10.2,5.1-17,15.3-10.2c0,0,3.4-5.1,12.7-0.8c9.3,4.2,8.5,5.9,12.7,5.9s13.6,2.5,19.5,0
				c2.3-1,3.5-2.1,4-3.5c1-11.6-4.5-25-29.1-57.2C794.2,282,784,291.4,784,291.4z"/>
			<path class="st12" d="M738.1,376.3c-4.2,1.7-0.8,5.9,2.5,5.1c3.4-0.8,7.1-1.7,9.3-2.5C754.2,377.2,742.4,374.6,738.1,376.3z"/>
			<path class="st12" d="M750,384c-1.7,1.7-2.5,4.2-1.7,3.4c0.8-0.8,3.4-2.5,5.1-2.5S751.7,382.3,750,384z"/>
			<path class="st11" d="M735.6,457.1c-1.7,0-3.4-0.8-4.2-1.7c-0.8-0.8-1.7,2.5,0.8,3.4C734.7,459.6,737.3,457.1,735.6,457.1z"/>
			<path class="st14" d="M769.5,405.2c0.8,6.8,6.8,2.5,7.6-5.9C777.6,395.5,768.7,398.4,769.5,405.2z"/>
			<path class="st6" d="M861.8,1163.6c-3.9,1-17.5,1-22.3,0c-4.9-1-15.5,8.7-27.2,12.6c-11.6,3.9-24.3,4.9-27.2,5.8
				c-2.9,1-2.9,3.9,0,5.8h81.5C869.5,1169.4,861.8,1163.6,861.8,1163.6z"/>
			<path class="st7" d="M795.9,929.5c0,0,11.9,142.8,28.9,238.8c15.3,2.5,46.7,0,46.7,0s-22.9-164.9-28-183.5
				C838.4,966.1,795.9,929.5,795.9,929.5z"/>
			<path class="st7" d="M755.1,674.6l1.7,31.4l17,13.6c0,0,28.9-5.1,52.7-39.9C801,675.4,778,661,778,661L755.1,674.6z"/>
		</g>
	</g>
</g>
</svg>
